<?xml version="1.0" encoding="UTF-8"?>
<!DOCTYPE svg PUBLIC "-//W3C//DTD SVG 1.1//EN" "http://www.w3.org/Graphics/SVG/1.1/DTD/svg11.dtd">
<svg xmlns="http://www.w3.org/2000/svg" version="1.1" width="603px" height="271px" style="shape-rendering:geometricPrecision; text-rendering:geometricPrecision; image-rendering:optimizeQuality; fill-rule:evenodd; clip-rule:evenodd" xmlns:xlink="http://www.w3.org/1999/xlink">
<g><path style="opacity:0.728" fill="#010202" d="M 186.5,244.5 C 186.706,246.549 187.539,246.883 189,245.5C 189.483,246.448 189.649,247.448 189.5,248.5C 193.828,249.865 198.328,250.865 203,251.5C 215.969,251.126 228.469,248.626 240.5,244C 250.725,233.107 260.225,221.607 269,209.5C 271.5,207 274,204.5 276.5,202C 278.134,201.506 279.801,201.34 281.5,201.5C 281.575,205.897 281.075,210.23 280,214.5C 275.047,223.559 274.38,232.893 278,242.5C 279,241.833 280,241.167 281,240.5C 282.442,236.489 284.442,232.822 287,229.5C 289.002,226.113 291.835,224.613 295.5,225C 299.203,228.367 302.536,232.034 305.5,236C 307.137,236.601 308.803,237.101 310.5,237.5C 313.935,236.616 317.268,235.449 320.5,234C 328.112,234.812 335.445,233.478 342.5,230C 344.668,227.094 347.334,224.927 350.5,223.5C 352.587,223.539 353.921,224.539 354.5,226.5C 354.28,232.391 351.28,235.057 345.5,234.5C 343.563,242.498 344.396,250.165 348,257.5C 353.009,261.31 358.176,261.477 363.5,258C 366.333,255.833 368.833,253.333 371,250.5C 370.743,247.624 371.743,244.957 374,242.5C 374.334,214.981 376.834,187.481 381.5,160C 381.184,148.545 382.517,137.211 385.5,126C 385.167,125.667 384.833,125.333 384.5,125C 391.669,88.5287 399.169,52.362 407,16.5C 407.611,11.504 408.111,6.50402 408.5,1.5C 411.238,0.964782 413.072,1.96478 414,4.5C 415.135,20.9472 413.635,37.1139 409.5,53C 409.957,53.414 410.291,53.914 410.5,54.5C 408.199,85.7368 404.199,116.903 398.5,148C 398.643,161.256 398.643,174.422 398.5,187.5C 400.153,202.931 403.653,217.931 409,232.5C 413.174,239.516 417.841,246.183 423,252.5C 425.831,243.835 429.497,235.501 434,227.5C 435.913,216.09 439.58,205.423 445,195.5C 445.915,196.328 446.581,197.328 447,198.5C 447.516,215.363 455.35,220.197 470.5,213C 472.505,207.478 475.839,202.978 480.5,199.5C 481.086,199.709 481.586,200.043 482,200.5C 481.066,204.416 480.066,208.416 479,212.5C 473.912,216.842 471.412,222.342 471.5,229C 477.02,236.747 484.354,241.414 493.5,243C 490.778,238.52 489.945,233.687 491,228.5C 493.215,223.9 496.048,219.734 499.5,216C 508.87,213.03 513.87,216.53 514.5,226.5C 516.144,226.286 517.644,226.62 519,227.5C 524.535,224.149 530.368,221.482 536.5,219.5C 536.561,223.049 535.727,226.382 534,229.5C 533.28,235.341 534.613,240.675 538,245.5C 539.522,248.224 541.689,250.224 544.5,251.5C 551.177,236.958 560.177,224.125 571.5,213C 581.087,207.032 591.42,204.865 602.5,206.5C 602.5,207.167 602.5,207.833 602.5,208.5C 594.374,209.243 586.374,210.743 578.5,213C 563.552,223.956 553.219,238.29 547.5,256C 545.365,256.635 543.365,256.301 541.5,255C 532.426,247.108 528.926,237.275 531,225.5C 529.482,226.163 528.315,227.163 527.5,228.5C 523.557,229.486 519.557,230.152 515.5,230.5C 515.994,235.872 514.494,240.872 511,245.5C 508.888,248.284 506.221,250.284 503,251.5C 491.306,248.964 480.806,243.964 471.5,236.5C 467.904,230.498 467.57,224.332 470.5,218C 468.609,217.797 466.943,218.297 465.5,219.5C 453.283,222.48 446.116,217.813 444,205.5C 441.667,213.5 439.333,221.5 437,229.5C 432.025,239.419 428.025,249.752 425,260.5C 412.869,248.025 404.535,233.358 400,216.5C 398.263,205.051 396.597,193.384 395,181.5C 393.966,163.089 395.466,144.923 399.5,127C 398.919,126.107 398.585,125.107 398.5,124C 400.613,110.824 402.779,97.6573 405,84.5C 406.422,59.7262 408.422,35.0595 411,10.5C 404.459,42.8722 397.792,75.2055 391,107.5C 385.231,145.15 381.065,182.983 378.5,221C 382.758,237.897 378.091,251.564 364.5,262C 358.315,265.477 352.315,265.31 346.5,261.5C 344.512,259.535 343.012,257.202 342,254.5C 340.743,248.231 340.243,241.898 340.5,235.5C 336.914,236.694 333.247,237.694 329.5,238.5C 327.657,238.221 325.823,237.887 324,237.5C 319.329,238.843 314.662,240.177 310,241.5C 307.007,240.871 304.173,239.704 301.5,238C 299.451,235.407 297.285,232.907 295,230.5C 294,231.833 293,231.833 292,230.5C 289.533,234.6 286.699,238.434 283.5,242C 283.476,248.909 280.642,250.076 275,245.5C 272.8,241.607 271.634,237.44 271.5,233C 273.165,224.17 274.665,215.67 276,207.5C 267.184,216.646 259.517,226.646 253,237.5C 250.221,240.279 247.387,243.113 244.5,246C 231.778,252.762 218.112,255.929 203.5,255.5C 199.161,255.639 194.994,254.972 191,253.5C 189.582,256.001 188.582,255.668 188,252.5C 182.77,249.41 179.103,245.077 177,239.5C 173.404,244.591 168.571,247.924 162.5,249.5C 160.699,255.098 158.366,260.431 155.5,265.5C 155.833,266.167 156.167,266.833 156.5,267.5C 154.816,268.15 153.483,269.15 152.5,270.5C 150.167,270.5 147.833,270.5 145.5,270.5C 144.496,268.172 143.162,266.839 141.5,266.5C 141.914,263.968 142.248,261.468 142.5,259C 141.809,249.376 141.142,239.71 140.5,230C 140.955,209.673 141.789,189.173 143,168.5C 139.576,179.342 134.91,190.009 129,200.5C 126.277,203.557 123.944,206.89 122,210.5C 108.398,219.818 93.8977,221.984 78.5,217C 74.904,214.402 71.0707,212.235 67,210.5C 66.228,210.645 65.5613,210.978 65,211.5C 62.7505,222.738 62.0839,234.071 63,245.5C 65.0464,250.423 67.213,255.256 69.5,260C 68.3818,264.023 66.3818,264.523 63.5,261.5C 60.244,255.58 57.0773,249.58 54,243.5C 51.3898,237.069 49.3898,230.402 48,223.5C 46.5126,225.985 44.6792,228.152 42.5,230C 37.778,230.777 33.1113,230.61 28.5,229.5C 28.2487,236.456 28.0821,243.456 28,250.5C 27.5616,254.567 25.3949,257.067 21.5,258C 8.62732,257.964 1.62732,251.464 0.5,238.5C 1.24165,227.851 5.57498,219.017 13.5,212C 19.3324,210.598 23.3324,212.598 25.5,218C 24.8712,220.173 25.5379,222.173 27.5,224C 37.3026,230.354 43.8026,227.854 47,216.5C 47.226,212.113 47.726,207.779 48.5,203.5C 50.7817,202.1 52.2817,202.766 53,205.5C 53.477,211.674 53.3103,217.674 52.5,223.5C 52.7853,230.524 54.9519,236.857 59,242.5C 59.5597,230.796 60.5597,219.129 62,207.5C 62.3742,206.584 62.8742,205.75 63.5,205C 66.8408,205.062 69.8408,206.229 72.5,208.5C 74.9358,207.109 75.6025,207.609 74.5,210C 88.6314,217.374 102.631,217.04 116.5,209C 118.667,206.833 120.833,204.667 123,202.5C 132.304,185.893 139.97,168.559 146,150.5C 154.186,113.465 161.519,76.4646 168,39.5C 168.752,26.2571 171.752,13.5904 177,1.5C 182.097,0.245079 184.597,2.41175 184.5,8C 180.121,27.6304 174.787,46.9637 168.5,66C 166.308,80.2842 163.308,94.6176 159.5,109C 160.022,109.561 160.355,110.228 160.5,111C 146.013,159.031 140.846,208.197 145,258.5C 145.375,261 146.208,263.333 147.5,265.5C 148.365,266.583 149.365,266.749 150.5,266C 153.509,260.28 156.509,254.613 159.5,249C 156.752,247.196 154.252,245.029 152,242.5C 150.991,240.975 150.491,239.308 150.5,237.5C 149.325,237.719 148.325,237.386 147.5,236.5C 148.136,231.898 149.136,227.398 150.5,223C 152.5,222.333 154.5,222.333 156.5,223C 163.956,228.313 166.789,235.479 165,244.5C 168.423,241.001 172.257,238.001 176.5,235.5C 178.268,228.998 181.602,223.498 186.5,219C 188.473,218.505 190.473,218.338 192.5,218.5C 192.665,221.85 192.498,225.183 192,228.5C 187.644,230.359 184.477,233.359 182.5,237.5C 182.692,239.577 183.192,241.577 184,243.5C 184.671,244.252 185.504,244.586 186.5,244.5 Z M 179.5,4.5 C 181.441,6.01064 181.941,8.01064 181,10.5C 177.931,25.4428 173.931,40.1095 169,54.5C 170.599,37.4367 174.099,20.77 179.5,4.5 Z M 18.5,215.5 C 19.8366,216.315 20.8366,217.482 21.5,219C 20.8333,219.333 20.1667,219.667 19.5,220C 20.5704,222.742 22.0704,225.242 24,227.5C 24.3727,233.179 24.8727,238.845 25.5,244.5C 25.3184,247.226 24.8184,249.893 24,252.5C 22.4374,255.044 20.9374,255.044 19.5,252.5C 16.4406,254.628 13.4406,254.295 10.5,251.5C 8.56138,249.878 8.22804,248.044 9.5,246C 8.55085,245.383 7.71752,245.549 7,246.5C 6.00676,243.692 5.17343,240.859 4.5,238C 5.7623,232.788 7.2623,227.621 9,222.5C 11.529,219.115 14.6956,216.782 18.5,215.5 Z M 503.5,218.5 C 506.288,220.76 507.455,223.76 507,227.5C 505.803,230.089 504.803,232.756 504,235.5C 501.667,237.833 499.333,240.167 497,242.5C 493.583,236.78 493.75,231.28 497.5,226C 497.167,225.667 496.833,225.333 496.5,225C 498.729,222.6 501.063,220.433 503.5,218.5 Z M 153.5,227.5 C 155.903,227.393 157.736,228.393 159,230.5C 159.452,233.149 160.286,235.649 161.5,238C 161.852,240.138 161.352,242.304 160,244.5C 154.326,239.956 152.159,234.289 153.5,227.5 Z M 510.5,228.5 C 511.695,228.866 512.361,229.699 512.5,231C 511.044,236.442 508.711,241.442 505.5,246C 503.741,246.798 502.074,246.631 500.5,245.5C 505.119,240.596 508.452,234.93 510.5,228.5 Z"/></g>
<g><path style="opacity:0.947" fill="#2b2a2c" d="M 165.5,64.5 C 166.586,64.62 167.253,65.2867 167.5,66.5C 167.167,67.1667 166.833,67.8333 166.5,68.5C 165.571,67.3112 165.238,65.9778 165.5,64.5 Z"/></g>
<g><path style="opacity:0.78" fill="#515153" d="M 163.5,74.5 C 165.337,74.6395 165.67,75.3061 164.5,76.5C 163.702,76.0431 163.369,75.3764 163.5,74.5 Z"/></g>
<g><path style="opacity:0.004" fill="#000000" d="M 148.5,131.5 C 149.833,132.167 149.833,132.167 148.5,131.5 Z"/></g>
<g><path style="opacity:0.356" fill="#000000" d="M 180.5,156.5 C 183.548,156.494 184.048,157.494 182,159.5C 180.961,158.756 180.461,157.756 180.5,156.5 Z"/></g>
<g><path style="opacity:0.004" fill="#000000" d="M 59.5,214.5 C 60.8333,215.167 60.8333,215.167 59.5,214.5 Z"/></g>
<g><path style="opacity:0.004" fill="#000000" d="M 465.5,219.5 C 466.833,220.167 466.833,220.167 465.5,219.5 Z"/></g>
<g><path style="opacity:0.004" fill="#000000" d="M 527.5,228.5 C 528.833,229.167 528.833,229.167 527.5,228.5 Z"/></g>
<g><path style="opacity:0.255" fill="#000201" d="M 30.5,231.5 C 32.337,231.639 32.6704,232.306 31.5,233.5C 30.7025,233.043 30.3691,232.376 30.5,231.5 Z"/></g>
<g><path style="opacity:0.246" fill="#030301" d="M 154.5,232.5 C 156.337,232.639 156.67,233.306 155.5,234.5C 154.702,234.043 154.369,233.376 154.5,232.5 Z"/></g>
<g><path style="opacity:0.304" fill="#050404" d="M 186.5,244.5 C 185.537,243.637 185.537,242.97 186.5,242.5C 187.773,243.257 187.773,243.923 186.5,244.5 Z"/></g>
<g><path style="opacity:0.196" fill="#000000" d="M 301.5,246.5 C 301.897,245.475 302.563,245.308 303.5,246C 302.906,246.464 302.239,246.631 301.5,246.5 Z"/></g>
<g><path style="opacity:0.004" fill="#000000" d="M 14.5,259.5 C 14.8966,258.475 15.5632,258.308 16.5,259C 15.9056,259.464 15.2389,259.631 14.5,259.5 Z"/></g>
<g><path style="opacity:0.369" fill="#000000" d="M 346.5,261.5 C 346.631,262.239 346.464,262.906 346,263.5C 345.308,262.563 345.475,261.897 346.5,261.5 Z"/></g>
</svg>
