<?xml version="1.0" standalone="no"?>
<!DOCTYPE svg PUBLIC "-//W3C//DTD SVG 20010904//EN"
 "http://www.w3.org/TR/2001/REC-SVG-20010904/DTD/svg10.dtd">
<svg version="1.0" xmlns="http://www.w3.org/2000/svg"
 width="4096.000000pt" height="4096.000000pt" viewBox="0 0 4096.000000 4096.000000"
 preserveAspectRatio="xMidYMid meet">
<metadata>
Created by potrace 1.14, written by Peter Selinger 2001-2017
</metadata>
<g transform="translate(0.000000,4096.000000) scale(0.100000,-0.100000)"
fill="#000000" stroke="none">
<path d="M14738 24215 c-2 -1 -34 -5 -73 -8 -38 -4 -81 -8 -95 -11 -14 -3 -37
-8 -52 -12 -15 -3 -31 -6 -35 -6 -5 -1 -24 -8 -43 -16 -19 -8 -35 -13 -35 -11
0 10 -259 -95 -360 -146 -124 -63 -294 -170 -355 -224 -19 -17 -43 -33 -53
-37 -9 -3 -15 -10 -12 -15 4 -5 2 -9 -4 -9 -25 0 -374 -348 -521 -519 -30 -36
-62 -72 -70 -80 -61 -66 -320 -392 -445 -561 -38 -52 -74 -99 -78 -105 -4 -5
-48 -68 -98 -140 -49 -71 -100 -143 -112 -160 -12 -16 -20 -32 -18 -34 1 -2
-1 -7 -6 -10 -13 -9 -93 -130 -93 -140 0 -5 -4 -11 -8 -13 -4 -1 -45 -61 -90
-133 -45 -71 -86 -135 -92 -142 -5 -7 -10 -14 -10 -17 0 -2 -22 -40 -48 -83
-56 -90 -186 -316 -239 -413 -92 -170 -296 -567 -298 -580 -1 -3 -20 -45 -44
-95 -37 -78 -53 -113 -101 -220 -5 -11 -19 -42 -31 -70 -11 -27 -27 -63 -35
-80 -7 -16 -29 -70 -49 -120 -20 -49 -42 -103 -49 -120 -22 -49 -158 -415
-161 -433 -2 -9 -4 -19 -5 -22 -1 -3 -2 -8 -1 -12 0 -5 -4 -8 -9 -8 -6 0 -10
-7 -10 -15 0 -15 -34 -123 -50 -160 -5 -11 -23 -67 -40 -125 -47 -157 -101
-343 -106 -360 -2 -8 -22 -85 -45 -170 -22 -85 -43 -166 -45 -180 -3 -14 -8
-34 -11 -45 -7 -22 -10 -36 -18 -80 -2 -16 -9 -48 -15 -70 -15 -59 -33 -138
-44 -205 -3 -14 -5 -25 -7 -25 -1 0 -3 -9 -4 -20 -1 -11 -7 -45 -13 -75 -14
-64 -24 -119 -26 -140 -2 -8 -6 -25 -10 -37 -12 -37 -17 -66 -21 -123 -5 -88
31 -134 118 -151 65 -12 101 10 136 85 83 175 102 214 126 251 13 22 28 47 32
55 34 67 260 420 282 440 3 3 22 25 41 50 98 128 226 247 367 344 56 38 203
118 203 111 0 -3 10 1 23 9 24 16 115 45 162 53 155 24 264 -29 332 -160 110
-216 118 -618 15 -739 -8 -10 -12 -18 -8 -18 5 0 -19 -26 -52 -58 -47 -46
-171 -124 -201 -128 -35 -4 -475 -146 -498 -160 -13 -8 -23 -12 -23 -10 0 10
-255 -109 -310 -144 -141 -89 -259 -179 -259 -197 -1 -7 -5 -13 -9 -13 -21 0
-63 -123 -63 -185 0 -56 39 -150 79 -191 31 -31 107 -68 127 -61 7 3 17 1 23
-5 22 -22 395 -7 462 19 8 3 26 7 40 9 63 8 268 110 329 163 13 12 27 21 30
21 8 0 133 121 178 172 31 35 163 224 163 234 0 8 55 89 63 92 4 2 7 8 7 14 0
16 93 128 147 177 56 50 127 101 142 101 6 0 11 3 11 8 0 4 17 15 38 24 101
47 172 77 172 71 0 -3 7 0 15 7 8 7 15 9 15 5 0 -4 6 -2 13 4 8 6 17 8 20 4 4
-3 7 -1 7 6 0 7 4 10 8 7 5 -3 20 1 35 9 15 8 27 12 27 10 0 -3 29 8 135 50
11 4 25 9 31 10 6 2 42 17 81 34 39 17 78 31 87 31 9 0 16 4 16 8 0 5 6 9 13
9 12 0 162 64 305 129 41 19 75 34 77 34 2 0 71 32 152 71 81 39 164 78 183
87 19 9 38 21 42 26 4 6 8 8 8 4 0 -4 56 22 125 57 68 36 132 68 142 73 29 14
63 32 111 59 l44 25 -36 -64 c-115 -198 -215 -440 -241 -578 -3 -14 -7 -38
-11 -55 -26 -138 -23 -333 6 -409 5 -15 7 -26 4 -26 -4 0 1 -11 10 -25 9 -13
16 -32 16 -40 0 -9 14 -36 30 -60 17 -24 30 -47 30 -50 0 -16 122 -125 179
-159 67 -41 191 -89 261 -102 50 -9 59 -11 63 -13 21 -16 374 -14 482 3 17 3
44 7 60 9 17 3 50 11 75 18 51 14 45 13 88 23 17 4 32 11 32 15 0 4 8 7 18 8
16 1 145 49 197 73 11 5 43 19 70 30 84 37 255 122 350 176 49 28 105 60 124
70 19 10 40 23 45 27 6 4 63 42 126 84 129 85 343 242 348 255 2 4 11 8 19 8
9 0 13 3 10 6 -4 4 13 21 37 38 95 68 361 309 595 539 68 67 121 118 119 112
-3 -5 -17 -35 -31 -65 -14 -30 -40 -86 -58 -125 -18 -38 -33 -72 -33 -75 -1
-4 -58 -138 -96 -225 -5 -11 -25 -65 -45 -120 -20 -55 -39 -107 -42 -115 -3
-8 -6 -18 -5 -21 1 -4 -9 -40 -23 -80 -30 -94 -43 -145 -49 -189 -2 -19 -7
-42 -10 -50 -3 -8 -8 -32 -11 -54 -3 -21 -7 -41 -9 -45 -2 -3 -7 -28 -11 -56
-21 -140 -6 -199 58 -235 82 -46 153 -23 235 77 17 21 153 162 304 314 150
152 379 384 509 515 129 131 264 265 300 297 35 32 78 70 94 85 17 15 59 50
95 77 36 28 69 56 73 63 4 6 12 12 17 12 9 0 22 9 64 45 7 6 19 15 28 20 9 6
63 40 120 77 56 37 106 66 109 65 4 -1 15 5 25 14 11 9 66 40 124 69 58 29
117 59 132 67 15 7 57 25 95 39 37 14 72 28 78 32 5 4 12 7 15 7 3 1 38 11 78
24 219 67 344 -9 344 -209 0 -75 -40 -279 -68 -345 -7 -18 -10 -35 -7 -39 4
-3 1 -6 -6 -6 -7 0 -9 -5 -6 -10 4 -6 2 -16 -3 -23 -6 -7 -11 -16 -11 -22 -1
-20 -25 -95 -31 -95 -3 0 -6 -8 -7 -18 -1 -10 -18 -65 -38 -123 -20 -57 -38
-108 -39 -114 -1 -5 -10 -37 -20 -70 -10 -33 -20 -67 -22 -75 -2 -8 -17 -67
-33 -130 -90 -352 -71 -521 73 -666 81 -81 123 -99 231 -99 50 0 99 4 110 9
11 5 25 10 31 11 22 5 189 90 196 100 5 7 8 7 8 0 0 -5 4 -5 8 2 4 6 66 40
137 74 72 34 168 86 215 115 69 43 346 238 385 271 6 5 26 20 45 33 19 14 46
35 60 48 13 12 28 22 32 22 3 0 13 6 20 13 7 7 42 35 78 62 35 28 71 55 80 62
38 29 106 84 120 96 13 12 97 78 125 100 5 4 24 19 40 33 17 13 51 41 78 61
26 21 47 41 47 45 0 4 5 8 10 8 6 0 18 8 28 18 10 9 37 33 61 52 24 19 54 44
67 55 30 27 49 42 199 169 72 60 132 112 135 115 4 5 83 74 164 142 15 13 38
33 50 44 12 11 46 40 76 65 29 25 58 50 64 55 6 6 36 30 66 54 99 80 113 107
70 146 -44 40 -106 22 -193 -57 -39 -36 -115 -98 -175 -143 -7 -5 -21 -17 -31
-25 -9 -8 -62 -51 -116 -95 -55 -44 -109 -88 -119 -97 -11 -10 -24 -18 -28
-18 -5 0 -6 -4 -3 -10 3 -5 2 -10 -3 -10 -9 0 -168 -123 -182 -140 -3 -3 -39
-33 -80 -65 -41 -33 -77 -62 -80 -65 -4 -5 -67 -56 -123 -100 -11 -8 -36 -30
-56 -47 -20 -18 -39 -33 -42 -33 -3 0 -19 -11 -35 -25 -16 -14 -54 -45 -84
-68 -30 -23 -57 -44 -60 -47 -3 -3 -25 -21 -50 -40 -25 -19 -47 -37 -50 -40
-3 -3 -23 -19 -45 -36 -22 -17 -71 -54 -110 -84 -38 -30 -71 -57 -73 -62 -2
-4 -7 -8 -12 -8 -7 0 -155 -106 -203 -145 -9 -8 -19 -15 -22 -15 -8 0 -100
-65 -103 -72 -2 -5 -7 -8 -12 -8 -5 0 -36 -18 -69 -40 -33 -22 -63 -40 -67
-40 -4 0 -15 -6 -23 -14 -9 -7 -45 -29 -81 -48 -36 -19 -76 -41 -90 -49 -14
-7 -27 -14 -30 -15 -3 0 -39 -17 -80 -36 -217 -103 -347 -106 -404 -8 -28 48
-29 172 -2 290 4 14 9 39 12 55 3 17 12 55 22 85 9 30 16 57 17 60 9 41 19 77
25 90 9 18 127 401 181 588 7 23 16 42 21 42 5 0 7 3 4 8 -2 4 7 52 20 107 44
180 37 327 -23 445 -50 98 -197 224 -288 246 -16 4 -34 10 -40 14 -21 15 -170
3 -235 -19 -81 -28 -213 -97 -254 -133 -11 -10 -24 -18 -29 -18 -6 0 -25 -11
-43 -25 -18 -14 -37 -25 -43 -25 -6 0 -11 -4 -11 -8 0 -5 -15 -16 -32 -26 -18
-9 -42 -22 -53 -29 -11 -7 -52 -30 -90 -51 -39 -21 -78 -46 -87 -54 -10 -8
-18 -11 -18 -7 0 4 -8 1 -17 -8 -10 -8 -62 -44 -115 -80 -54 -35 -95 -67 -91
-71 3 -3 0 -6 -8 -6 -9 0 -24 -8 -35 -18 -10 -9 -39 -33 -64 -52 -25 -19 -50
-39 -56 -45 -6 -5 -28 -23 -49 -40 -94 -74 -267 -239 -569 -543 -466 -470
-521 -522 -548 -522 -35 0 -42 55 -18 140 7 25 13 50 15 55 6 28 97 256 131
330 8 17 45 102 83 190 64 150 78 182 136 310 13 28 49 108 80 180 31 71 61
135 67 142 6 7 8 13 5 13 -3 0 5 26 18 58 27 67 26 118 -3 185 -16 35 -26 47
-42 47 -35 0 -79 -32 -92 -66 -6 -17 -23 -39 -37 -47 -14 -9 -79 -67 -143
-129 -64 -62 -145 -138 -179 -168 -34 -30 -77 -70 -95 -87 -19 -18 -36 -33
-39 -33 -3 0 -20 -15 -39 -32 -18 -18 -64 -60 -101 -93 -81 -71 -162 -146
-254 -233 -206 -197 -528 -462 -560 -462 -6 0 -11 -4 -11 -10 0 -5 -14 -17
-32 -26 -17 -9 -36 -20 -42 -25 -46 -38 -336 -209 -353 -209 -5 0 -25 -11 -46
-25 -20 -14 -37 -23 -37 -20 0 3 -24 -8 -52 -24 -29 -16 -55 -29 -58 -29 -7
-1 -59 -21 -95 -37 -88 -39 -315 -115 -390 -130 -76 -15 -96 -17 -180 -18 -81
0 -115 2 -207 17 -37 6 -149 45 -175 62 -13 8 -23 11 -23 7 0 -5 -4 -3 -8 2
-4 6 -22 18 -41 29 -19 10 -42 26 -51 35 -10 9 -34 30 -54 46 -19 17 -35 34
-36 38 0 4 -9 17 -20 29 -54 58 -103 202 -93 275 11 86 76 153 163 168 25 5
110 9 190 10 145 2 231 13 325 42 58 17 66 21 158 62 37 16 68 29 70 28 1 -1
16 8 34 21 17 12 34 22 37 22 4 0 12 4 19 10 7 5 53 41 104 80 187 142 288
269 347 437 31 88 36 111 41 192 5 61 -11 181 -25 199 -2 1 -3 5 -4 10 -2 12
-49 76 -71 95 -37 33 -169 107 -190 107 -12 0 -25 4 -31 9 -15 15 -117 28
-188 24 -71 -3 -183 -28 -203 -45 -7 -6 -13 -8 -13 -4 0 11 -166 -79 -190
-104 -25 -25 -104 -82 -140 -100 -25 -13 -82 -47 -127 -77 -73 -48 -253 -139
-763 -385 -91 -44 -205 -98 -255 -120 -49 -23 -91 -45 -93 -49 -2 -5 -11 -9
-20 -9 -8 0 -43 -13 -76 -29 -109 -51 -141 -64 -153 -64 -7 0 -13 -4 -13 -8 0
-4 -11 -10 -25 -13 -14 -4 -50 -18 -80 -31 -29 -14 -59 -25 -64 -25 -6 0 -19
-4 -29 -10 -18 -10 -159 -67 -202 -80 -14 -5 -63 -23 -110 -40 -68 -25 -134
-39 -190 -42 -36 -2 -67 19 -91 62 -7 14 -14 27 -14 30 -1 3 -4 19 -8 35 -13
54 -17 79 -22 130 -3 28 -7 59 -9 70 -2 11 -7 49 -11 85 -5 36 -9 72 -10 80
-12 101 -80 277 -132 341 -49 61 -158 149 -193 155 -3 0 -12 3 -20 6 -68 26
-103 31 -195 30 -87 -1 -121 -7 -210 -38 -221 -75 -363 -181 -702 -522 -116
-117 -214 -209 -217 -204 -3 5 -4 85 -2 178 3 168 17 254 57 349 7 17 12 33
11 38 -1 4 3 7 8 7 6 0 10 5 10 11 0 30 156 209 182 209 3 0 13 6 20 13 7 7
92 57 188 111 96 54 187 107 202 117 14 11 31 19 36 19 6 0 12 4 14 9 2 5 10
11 18 13 8 2 17 6 20 9 3 3 68 43 145 90 77 46 142 86 145 89 3 3 17 11 33 19
15 8 27 18 27 23 0 4 4 8 10 8 11 0 69 36 273 172 82 54 153 98 158 98 5 0 9
4 9 8 0 4 15 16 33 27 17 10 34 21 37 24 7 9 100 71 105 71 3 0 13 7 22 15 17
13 197 143 244 175 40 27 424 314 429 320 3 3 21 17 40 30 19 13 37 27 40 30
3 3 37 30 75 60 39 30 72 58 73 62 2 5 8 8 14 8 6 0 16 6 22 13 6 7 56 49 111
93 55 43 105 84 111 90 6 5 30 26 54 45 23 18 52 42 63 53 12 10 42 35 67 55
25 20 63 53 85 73 22 20 51 46 65 58 137 117 464 438 565 556 28 32 58 66 68
76 9 10 15 18 12 18 -3 0 6 12 20 28 39 41 155 196 219 292 31 47 60 90 64 95
10 13 101 174 142 250 87 166 208 484 236 624 3 14 7 28 9 31 2 4 6 20 9 36 3
16 12 63 20 104 14 75 16 295 3 317 -4 6 -9 24 -11 40 -5 42 -46 154 -67 184
-10 14 -16 28 -14 31 3 3 -4 13 -15 23 -11 10 -20 22 -20 27 0 15 -64 82 -140
148 -81 70 -233 131 -365 146 -27 3 -62 7 -77 9 -15 1 -28 2 -30 0z m157 -240
c63 -13 149 -47 203 -81 58 -37 137 -115 148 -146 3 -10 9 -18 13 -18 5 0 19
-32 31 -70 24 -75 24 -155 -1 -309 -19 -120 -21 -136 -22 -153 -1 -10 -4 -18
-7 -18 -3 0 -6 -8 -6 -17 -2 -27 -12 -71 -34 -148 -11 -38 -22 -74 -23 -80 -8
-27 -41 -124 -52 -150 -24 -58 -37 -94 -35 -101 1 -4 -3 -10 -8 -13 -8 -5 -34
-59 -43 -89 -2 -4 -32 -56 -67 -117 -36 -60 -71 -122 -79 -137 -8 -16 -19 -28
-24 -28 -5 0 -9 -5 -9 -10 0 -13 -149 -212 -212 -285 -155 -178 -239 -267
-457 -485 -136 -135 -275 -270 -309 -300 -35 -30 -74 -64 -86 -75 -77 -68
-119 -105 -166 -145 -30 -25 -65 -55 -79 -67 -14 -13 -30 -26 -36 -31 -58 -46
-232 -185 -275 -219 -30 -24 -63 -51 -73 -59 -9 -7 -20 -14 -23 -14 -3 0 -19
-13 -37 -30 -18 -16 -35 -30 -39 -30 -4 0 -13 -6 -20 -13 -7 -7 -53 -42 -103
-77 -49 -36 -92 -67 -95 -70 -3 -3 -16 -13 -30 -22 -14 -10 -44 -31 -68 -48
-23 -16 -47 -30 -52 -30 -4 0 -10 -4 -12 -8 -3 -9 -56 -47 -213 -153 -44 -30
-82 -57 -85 -60 -3 -3 -21 -14 -40 -25 -19 -10 -40 -24 -46 -30 -7 -6 -36 -26
-66 -44 -29 -18 -78 -50 -110 -72 -31 -21 -61 -38 -66 -38 -6 0 -12 -4 -14 -8
-1 -4 -48 -36 -103 -70 -55 -33 -104 -65 -110 -69 -5 -5 -44 -28 -85 -52 -41
-25 -76 -48 -78 -53 -2 -4 -8 -8 -13 -8 -5 0 -46 -22 -90 -50 -44 -27 -83 -50
-86 -50 -5 0 -95 -61 -103 -71 -11 -12 -103 -52 -124 -53 -11 -1 -31 4 -43 12
-39 24 -26 109 50 308 36 95 70 181 76 193 7 11 8 21 4 21 -4 0 -3 4 2 8 6 4
16 25 24 47 8 22 27 68 43 102 15 34 28 67 28 75 0 8 4 18 9 23 5 6 22 42 39
80 16 39 40 93 53 120 13 28 23 52 24 55 3 20 293 605 360 725 106 192 170
301 179 307 6 4 7 8 3 8 -6 0 21 49 71 126 6 10 20 34 29 52 9 17 20 32 25 32
4 0 8 4 8 10 0 10 32 63 129 210 31 47 60 93 66 102 13 22 127 190 137 203 5
6 31 42 58 80 118 166 271 369 281 373 5 2 9 8 9 13 0 5 8 17 18 27 9 11 24
28 32 38 74 95 204 252 320 384 8 9 40 46 70 80 55 64 285 297 331 336 82 70
349 252 349 238 0 -4 7 -1 15 6 64 53 382 170 555 204 64 13 206 13 265 1z
m732 -4956 c36 -17 64 -38 68 -49 4 -11 10 -20 14 -20 15 0 33 -56 36 -114 3
-42 -2 -75 -17 -115 -23 -62 -64 -138 -85 -159 -7 -7 -13 -17 -13 -22 0 -15
-164 -176 -225 -221 -33 -24 -62 -46 -65 -49 -3 -3 -22 -14 -42 -25 -21 -11
-38 -23 -38 -27 0 -5 -3 -7 -7 -6 -5 1 -35 -12 -68 -29 -184 -94 -374 -100
-466 -15 -114 107 -26 318 242 582 99 98 157 148 163 142 3 -3 6 0 6 5 0 16
133 102 198 128 41 17 76 22 145 23 82 1 99 -3 154 -29z m-3575 -1548 c25 -31
19 -51 -38 -128 -107 -147 -261 -275 -402 -334 -124 -52 -204 -67 -338 -62
-144 4 -173 17 -191 84 -14 48 8 82 87 137 36 25 67 49 68 54 2 4 8 8 13 8 6
0 21 10 35 23 14 13 48 32 77 42 29 10 63 25 77 34 13 9 25 15 27 14 1 -1 29
10 60 24 32 15 60 27 63 28 6 2 34 14 105 45 71 31 210 58 279 55 48 -2 63 -7
78 -24z"/>
<path d="M29888 23265 c-2 -2 -24 -6 -48 -9 -68 -7 -87 -13 -158 -46 -137 -64
-273 -185 -454 -403 -12 -16 -34 -41 -48 -56 -14 -15 -44 -52 -67 -81 -22 -30
-50 -66 -62 -80 -40 -49 -207 -277 -256 -350 -27 -41 -52 -77 -55 -80 -3 -3
-10 -14 -17 -25 -6 -11 -51 -84 -100 -162 -48 -78 -97 -156 -108 -175 -56 -95
-73 -124 -151 -263 -12 -22 -33 -61 -46 -87 -12 -27 -26 -48 -30 -48 -5 0 -8
-8 -8 -18 0 -10 -8 -27 -17 -38 -10 -11 -19 -26 -21 -34 -2 -8 -11 -23 -19
-32 -9 -10 -13 -18 -8 -18 4 0 3 -6 -3 -12 -9 -12 -195 -377 -197 -388 -1 -3
-28 -59 -60 -125 -33 -66 -59 -123 -57 -127 1 -5 -3 -8 -8 -8 -6 0 -10 -4 -10
-9 0 -11 -108 -240 -266 -566 -32 -66 -58 -122 -59 -125 0 -3 -6 -14 -12 -25
-19 -36 -81 -188 -113 -280 -17 -49 -35 -99 -39 -110 -5 -11 -17 -40 -27 -65
-55 -137 -158 -276 -221 -298 -39 -13 -106 -8 -158 11 -84 31 -110 42 -115 47
-6 7 -72 33 -125 50 -53 17 -121 19 -170 5 -22 -7 -53 -10 -70 -9 -28 3 -210
4 -262 1 -13 0 -23 -3 -23 -6 0 -4 -18 -7 -40 -8 -22 -2 -50 -8 -61 -14 -15
-8 -19 -8 -15 0 8 12 -21 4 -41 -12 -7 -5 -13 -7 -13 -4 0 6 -131 -38 -202
-68 -21 -8 -41 -15 -44 -14 -4 0 -10 -3 -13 -8 -3 -4 -32 -21 -65 -38 -32 -16
-88 -49 -124 -72 -36 -24 -69 -43 -73 -43 -5 0 -9 -4 -9 -10 0 -5 -6 -10 -14
-10 -8 0 -16 -3 -18 -7 -1 -5 -32 -30 -68 -58 -115 -87 -315 -284 -397 -390
-104 -134 -205 -292 -265 -415 -44 -91 -71 -149 -72 -160 -1 -3 -4 -9 -8 -15
-6 -10 -29 -83 -54 -170 -8 -27 -17 -72 -20 -100 -3 -27 -7 -62 -9 -77 -2 -16
1 -30 6 -34 5 -3 7 -10 4 -15 -8 -13 20 -120 42 -161 36 -65 58 -94 107 -140
66 -61 221 -138 247 -122 5 3 9 1 9 -3 0 -10 157 -9 209 1 19 4 42 11 52 17
11 5 19 8 19 5 0 -15 224 77 375 154 96 49 362 211 405 247 8 7 56 42 105 77
50 36 95 69 100 73 6 4 64 48 130 98 66 49 124 95 128 102 4 7 14 13 21 13 8
0 16 6 19 13 2 7 25 23 51 35 83 42 165 29 202 -31 16 -28 19 -51 19 -174 0
-89 -4 -143 -10 -143 -6 0 -5 -3 1 -8 6 -4 11 -14 11 -22 0 -8 3 -42 6 -75 20
-195 73 -334 158 -413 39 -37 138 -87 189 -97 103 -19 126 -22 132 -18 4 2 17
-1 28 -7 14 -8 20 -8 20 0 0 6 5 8 10 5 6 -4 59 -7 118 -7 96 0 145 3 222 16
14 2 43 7 65 10 22 4 47 10 55 13 8 3 23 8 34 10 91 17 431 174 444 206 2 4 8
7 13 7 6 0 15 5 22 10 7 6 66 50 132 98 121 87 308 230 355 270 14 12 36 31
50 43 242 199 573 521 775 753 33 38 69 78 81 90 18 19 85 97 140 164 10 13
27 33 38 45 10 12 35 42 55 67 20 25 44 52 53 61 10 9 18 20 18 26 0 5 22 29
50 53 46 41 75 89 71 117 -1 8 27 2 81 -18 46 -17 89 -31 96 -31 6 -1 12 -5
12 -9 0 -4 15 -10 33 -13 17 -3 43 -8 57 -11 14 -3 45 -7 69 -10 25 -3 50 -10
56 -15 7 -5 14 -7 17 -4 16 15 133 -70 122 -88 -3 -4 -1 -8 5 -8 6 0 8 -19 4
-47 -2 -27 -5 -54 -6 -60 0 -7 -5 -13 -10 -13 -6 0 -8 -3 -4 -6 9 -9 -116
-221 -144 -244 -3 -3 -19 -27 -35 -53 -16 -27 -39 -65 -51 -85 -13 -21 -33
-58 -45 -84 -13 -27 -26 -48 -30 -48 -5 0 -8 -4 -8 -9 0 -5 -8 -26 -17 -47 -9
-22 -17 -41 -18 -44 -3 -10 -17 -45 -30 -75 -7 -16 -26 -79 -41 -140 -24 -95
-28 -131 -28 -260 -1 -142 6 -244 18 -263 3 -5 7 -21 10 -35 19 -108 135 -240
231 -263 6 -2 34 -10 64 -18 72 -20 143 -27 281 -26 140 0 150 1 150 12 0 5 4
7 8 4 22 -14 227 63 382 142 112 57 309 175 419 250 81 55 234 164 241 172 3
3 43 34 90 70 98 74 116 89 139 111 9 8 39 33 66 55 28 21 55 44 60 50 6 5 44
39 84 75 41 35 87 75 101 89 15 14 73 68 130 120 57 52 116 107 131 123 15 15
30 27 33 27 3 0 -3 -20 -14 -45 -11 -25 -21 -55 -23 -68 -2 -12 -6 -29 -10
-37 -6 -15 -34 -136 -42 -179 -19 -102 -25 -337 -11 -441 39 -302 202 -511
472 -607 195 -70 378 -58 628 39 45 18 83 35 86 38 3 3 16 11 30 17 153 74
373 262 520 443 25 30 47 57 50 60 3 3 19 23 35 45 101 136 247 273 355 332
19 11 56 31 82 46 25 14 49 23 52 20 3 -4 6 -1 6 5 0 7 5 12 11 12 6 0 45 16
86 35 41 19 76 35 78 35 4 0 79 36 465 222 313 151 349 168 359 168 6 0 11 5
11 10 0 6 4 10 9 10 5 0 26 8 47 17 22 9 42 16 47 15 4 -1 7 2 7 8 0 5 6 10
13 10 7 0 31 9 53 19 80 39 172 79 289 126 66 26 138 55 160 65 136 58 694
228 707 215 2 -2 14 4 26 14 16 11 24 29 25 54 2 42 1 42 55 23 22 -8 43 -12
46 -9 3 4 6 1 6 -5 0 -7 6 -12 14 -12 7 0 35 -9 62 -19 82 -32 88 -34 134 -38
25 -2 52 -6 60 -10 8 -3 28 -7 43 -9 28 -4 89 -33 117 -56 25 -21 40 -70 34
-113 -3 -22 -6 -46 -6 -52 -1 -7 -5 -13 -9 -13 -4 0 -9 -10 -12 -23 -4 -12
-31 -60 -62 -106 -30 -47 -55 -88 -55 -93 0 -4 -4 -8 -8 -8 -7 0 -59 -81 -102
-158 -8 -15 -17 -29 -20 -32 -11 -11 -90 -178 -114 -242 -63 -168 -81 -273
-80 -463 3 -386 124 -532 463 -561 211 -18 358 4 516 76 140 63 293 143 372
193 24 15 45 27 48 27 4 0 21 11 39 25 18 14 38 25 44 25 7 0 12 4 12 8 0 5
12 15 28 23 15 8 32 18 37 22 6 5 53 38 106 75 144 101 361 271 474 371 17 14
61 53 99 86 39 33 82 71 96 85 15 14 61 57 104 95 43 39 101 93 130 120 29 28
122 115 206 195 84 80 175 165 200 190 26 25 94 88 150 140 182 168 208 197
216 237 6 34 4 40 -31 70 -58 50 -80 44 -174 -42 -24 -22 -55 -51 -71 -65 -75
-68 -207 -190 -250 -230 -27 -25 -83 -76 -125 -115 -42 -38 -102 -94 -132
-122 -30 -29 -56 -53 -57 -53 -2 0 -23 -19 -48 -42 -24 -24 -84 -79 -133 -123
-48 -44 -93 -85 -99 -91 -13 -13 -88 -78 -181 -159 -38 -33 -81 -71 -96 -85
-36 -33 -46 -41 -164 -135 -55 -44 -105 -84 -111 -90 -6 -5 -22 -17 -34 -25
-21 -14 -33 -24 -79 -63 -12 -9 -24 -17 -26 -17 -3 0 -41 -25 -84 -55 -43 -30
-82 -55 -85 -55 -4 0 -23 -12 -42 -26 -19 -15 -34 -23 -34 -19 0 5 -8 1 -17
-8 -21 -18 -293 -159 -293 -151 0 3 -12 -2 -27 -10 -23 -13 -65 -32 -93 -41
-3 -1 -12 -4 -20 -8 -68 -27 -142 -49 -147 -44 -3 4 -13 1 -21 -5 -10 -9 -50
-13 -116 -12 -83 0 -110 4 -153 23 -29 13 -53 27 -53 32 0 5 -6 9 -13 9 -18 0
-83 74 -108 122 -45 88 -57 213 -30 333 15 67 54 179 63 183 5 2 8 9 8 15 0
13 83 183 128 262 15 28 41 72 56 99 15 27 51 86 80 130 29 45 65 101 81 126
15 25 31 47 34 50 17 13 72 141 82 189 27 128 -24 207 -184 286 -124 61 -171
104 -184 168 -6 33 47 113 115 173 76 67 180 170 202 199 37 48 116 194 112
208 -1 4 2 7 8 7 5 0 10 5 10 11 0 6 27 78 60 161 33 82 58 154 55 158 -3 5
-1 11 3 14 10 6 8 121 -3 151 -4 11 -12 34 -18 50 -17 48 -81 137 -131 183
-64 59 -159 103 -230 105 -31 1 -56 6 -56 10 0 5 -5 5 -11 1 -6 -3 -25 -8 -42
-9 -18 -2 -44 -6 -58 -8 -35 -7 -178 -67 -185 -78 -3 -5 -14 -9 -25 -9 -10 0
-19 -4 -19 -8 0 -5 -18 -17 -40 -27 -22 -10 -40 -22 -40 -27 0 -4 -5 -8 -11
-8 -29 0 -217 -169 -285 -256 -58 -75 -164 -249 -164 -269 0 -3 -7 -20 -14
-37 -12 -28 -23 -56 -31 -78 -1 -3 -4 -12 -7 -20 -3 -8 -13 -44 -23 -80 -9
-36 -22 -78 -27 -95 -19 -57 -19 -216 0 -275 9 -30 22 -61 29 -68 7 -7 13 -17
13 -22 0 -22 159 -157 171 -145 3 2 13 -4 24 -13 11 -9 19 -16 17 -16 -2 1
-20 -3 -40 -8 -20 -5 -64 -16 -97 -24 -33 -8 -64 -16 -70 -17 -22 -7 -101 -29
-115 -32 -8 -2 -15 -4 -15 -5 0 -1 -17 -6 -47 -13 -7 -1 -17 -5 -23 -8 -8 -5
-35 -13 -80 -25 -23 -5 -332 -115 -350 -123 -38 -19 -100 -44 -115 -47 -8 -2
-23 -7 -35 -13 -21 -10 -89 -41 -163 -72 -23 -10 -45 -18 -47 -18 -3 0 -18 -7
-33 -15 -15 -8 -108 -55 -207 -104 -99 -50 -218 -111 -265 -136 -138 -75 -421
-213 -475 -231 -67 -23 -130 -24 -151 -3 -14 13 -17 49 -19 234 -2 121 -6 230
-9 244 -4 14 -8 41 -11 60 -3 19 -10 51 -15 70 -6 19 -13 46 -16 59 -3 13 -11
33 -19 45 -8 11 -15 26 -15 33 0 28 -89 159 -150 223 -144 148 -313 218 -543
224 -55 2 -87 -1 -202 -19 -24 -4 -131 -33 -180 -49 -47 -16 -92 -36 -163 -72
-147 -77 -218 -132 -413 -318 -59 -55 -151 -141 -205 -191 -54 -49 -113 -103
-130 -120 -18 -16 -72 -66 -120 -110 -48 -44 -103 -95 -123 -114 -20 -18 -70
-64 -111 -101 -41 -37 -91 -83 -111 -101 -20 -19 -63 -57 -95 -86 -32 -28 -74
-65 -92 -81 -18 -16 -52 -46 -75 -65 -23 -19 -55 -47 -72 -61 -16 -15 -43 -37
-58 -49 -16 -12 -36 -29 -44 -37 -9 -8 -50 -40 -92 -72 -42 -32 -81 -62 -87
-66 -5 -5 -29 -22 -52 -37 -23 -15 -42 -32 -42 -36 0 -5 -5 -9 -10 -9 -12 0
-153 -92 -158 -102 -2 -5 -7 -8 -12 -8 -4 0 -50 -24 -101 -53 -106 -60 -212
-112 -309 -151 -36 -15 -74 -31 -85 -36 -27 -14 -132 -47 -175 -56 -55 -13
-215 -10 -244 4 -14 7 -38 18 -53 25 -39 18 -118 97 -134 135 -8 17 -17 32
-20 32 -7 0 -15 28 -27 85 -8 37 -7 171 0 205 21 91 35 133 64 198 18 39 31
72 29 72 -2 0 14 32 36 71 21 40 39 74 39 76 0 2 33 60 73 129 93 161 82 143
160 262 37 57 67 107 67 111 0 5 6 14 14 20 25 21 60 133 60 197 1 51 -4 69
-29 109 -17 26 -39 53 -50 59 -11 6 -22 14 -25 17 -3 3 -44 24 -91 47 -123 59
-187 125 -176 182 8 42 44 91 103 145 92 84 195 186 221 221 36 47 137 249
159 319 2 6 19 49 39 96 66 162 67 251 2 374 -68 129 -210 236 -329 248 -26 3
-51 8 -57 12 -6 3 -11 2 -11 -3 0 -4 -15 -8 -34 -7 -69 4 -184 -38 -336 -122
-74 -41 -190 -132 -268 -211 -70 -72 -193 -243 -207 -289 -3 -13 -10 -23 -15
-23 -4 0 -10 -10 -13 -22 -3 -13 -17 -52 -33 -88 -51 -123 -94 -295 -94 -382
0 -29 0 -62 1 -73 0 -24 24 -95 44 -135 30 -59 111 -128 194 -167 45 -21 81
-40 81 -43 0 -3 -29 -27 -64 -55 -36 -27 -64 -51 -63 -52 1 -1 -79 -85 -178
-186 -99 -102 -277 -285 -395 -407 -278 -287 -579 -585 -676 -670 -102 -88
-381 -290 -400 -290 -3 0 -28 -15 -57 -33 -105 -66 -337 -169 -457 -202 -53
-15 -100 -26 -135 -32 -51 -8 -189 -9 -235 -1 -74 13 -100 21 -100 30 0 5 -4
7 -9 4 -5 -3 -14 1 -21 9 -7 8 -18 15 -24 15 -13 0 -95 76 -113 105 -52 83
-93 210 -89 273 1 18 -1 32 -6 32 -4 0 -6 6 -3 13 2 6 6 50 9 97 5 87 12 136
23 180 3 14 5 29 4 33 -1 5 4 27 10 50 6 23 11 44 11 47 1 34 111 293 135 318
7 7 13 18 13 23 0 10 56 91 114 164 40 52 236 248 367 368 222 205 909 878
909 891 0 1 37 42 83 89 87 91 98 103 217 237 41 47 80 90 85 96 6 6 28 33 50
58 22 26 49 58 60 70 21 24 53 63 135 166 79 100 113 142 133 162 9 10 16 19
15 21 -1 1 38 55 86 120 111 150 276 393 276 407 0 5 5 10 10 10 6 0 10 7 10
15 0 8 4 15 9 15 5 0 11 8 14 18 5 16 32 62 50 87 27 37 55 85 50 85 -3 0 1 8
9 18 19 22 108 181 108 193 0 5 5 9 10 9 6 0 9 3 8 8 -1 4 21 54 49 112 28 58
61 128 73 155 23 52 99 274 106 308 2 10 5 26 8 35 3 9 8 31 11 47 2 17 7 41
10 55 15 71 18 117 19 250 1 161 -6 236 -29 325 -21 79 -77 191 -118 235 -42
46 -117 100 -137 100 -9 0 -21 5 -26 10 -6 6 -33 13 -60 16 -27 3 -54 7 -61 9
-6 2 -13 2 -15 0z m77 -290 c55 -32 145 -119 145 -139 0 -8 4 -16 10 -18 20
-7 52 -188 40 -228 -1 -3 -3 -23 -5 -45 -5 -65 -67 -297 -102 -385 -8 -20 -8
-20 -18 -55 -7 -25 -68 -181 -108 -275 -6 -14 -11 -27 -12 -30 -1 -3 -10 -23
-20 -45 -10 -22 -19 -42 -20 -45 -2 -9 -136 -275 -144 -285 -5 -5 -22 -35 -38
-65 -30 -54 -120 -206 -135 -225 -4 -5 -42 -62 -84 -125 -91 -135 -117 -173
-125 -180 -3 -3 -30 -39 -61 -80 -31 -41 -64 -85 -74 -98 -94 -118 -142 -177
-159 -196 -5 -6 -37 -43 -70 -81 -63 -73 -90 -105 -172 -195 -28 -30 -63 -68
-77 -85 -70 -78 -281 -297 -471 -490 -115 -117 -245 -249 -288 -293 -71 -73
-269 -263 -299 -287 -106 -84 -157 -115 -193 -115 -49 0 -45 80 10 239 18 53
38 110 46 126 7 17 13 32 14 35 1 3 8 19 15 35 7 17 14 35 15 40 2 6 15 37 30
70 29 62 67 146 104 227 11 26 21 52 21 57 0 6 5 11 10 11 6 0 10 5 10 10 0
10 9 30 100 225 55 117 64 138 62 148 -1 4 3 7 8 7 6 0 10 4 10 10 0 5 33 76
72 157 40 81 73 150 73 153 1 3 32 68 69 145 37 77 68 142 68 145 4 17 264
526 270 528 5 2 8 12 8 22 0 10 3 20 8 22 4 2 16 21 27 43 11 22 52 97 91 166
39 69 74 132 77 140 4 8 38 65 77 127 38 63 70 118 70 123 0 5 5 9 10 9 6 0
14 8 18 18 6 14 105 167 134 207 104 141 223 301 228 305 3 3 25 30 50 60 25
30 49 60 55 66 46 51 76 87 112 134 24 30 47 60 53 67 5 7 10 15 10 18 0 3 8
13 18 24 9 10 37 42 61 71 111 130 231 155 366 75z m871 -2635 c40 -13 95 -73
123 -132 33 -69 23 -188 -23 -299 -8 -19 -15 -37 -15 -41 -1 -4 -13 -29 -28
-55 -14 -27 -35 -64 -46 -83 -20 -36 -117 -178 -143 -208 -20 -25 -178 -184
-205 -208 -57 -48 -166 -110 -210 -119 -13 -3 -35 -7 -48 -10 -13 -2 -45 6
-70 17 -25 12 -49 21 -53 20 -5 -1 -8 3 -8 8 0 6 -6 10 -13 10 -27 0 -98 66
-122 114 -20 40 -24 60 -21 117 2 38 9 76 16 84 7 8 10 15 7 15 -8 0 38 108
71 170 101 187 314 438 442 520 25 16 50 33 55 38 17 14 106 44 144 49 20 3
37 6 39 8 6 5 75 -5 108 -15z m7357 -4 c62 -26 121 -106 135 -183 9 -51 -5
-145 -31 -219 -41 -113 -145 -291 -237 -405 -80 -100 -262 -269 -288 -269 -6
0 -12 -3 -14 -7 -5 -13 -91 -51 -137 -62 -50 -11 -70 -8 -104 13 -13 9 -27 13
-30 9 -4 -3 -7 -1 -7 5 0 7 -6 12 -12 12 -27 0 -115 72 -137 110 -28 50 -34
126 -15 200 14 55 84 205 126 271 13 19 38 59 56 87 19 29 38 52 43 52 5 0 9
5 9 11 0 24 172 210 246 265 22 16 41 32 44 35 19 23 141 77 195 86 17 3 31 6
33 8 8 7 94 -5 125 -19z m-11574 -1300 c10 -7 12 -5 6 4 -5 8 -4 11 2 7 6 -4
31 -9 54 -12 172 -20 299 -95 347 -205 20 -47 40 -130 36 -155 -5 -34 -12 -80
-13 -82 -1 -2 -1 -5 0 -9 0 -3 -7 -16 -15 -30 -9 -13 -14 -24 -11 -24 26 0
-149 -193 -239 -265 -21 -16 -46 -37 -55 -46 -9 -9 -54 -47 -101 -84 -47 -38
-87 -71 -90 -74 -3 -3 -43 -35 -90 -71 -47 -35 -88 -69 -92 -75 -4 -5 -8 -6
-8 -1 0 6 -6 3 -12 -6 -25 -31 -382 -278 -552 -381 -11 -7 -44 -27 -72 -44
-29 -18 -55 -33 -57 -33 -2 0 -42 -22 -88 -48 -75 -43 -113 -62 -214 -107 -60
-27 -151 -44 -220 -41 -144 6 -260 110 -293 261 -10 48 -4 143 13 195 23 69
60 156 69 162 6 4 7 8 3 8 -4 0 8 28 27 63 19 34 43 78 53 97 23 44 93 153
102 160 4 3 17 21 29 40 12 19 32 47 44 62 13 14 39 46 58 70 36 45 226 236
273 276 15 12 32 22 37 22 6 0 10 4 10 8 0 11 75 64 225 160 11 6 36 20 55 30
19 9 37 20 38 25 2 4 12 7 23 7 10 0 19 5 19 10 0 6 8 10 18 10 9 0 33 9 53
19 73 39 251 88 347 95 23 2 44 5 46 7 8 8 221 3 235 -5z m7999 -35 c1 -1 4
-1 7 -1 16 1 68 -35 104 -70 79 -78 119 -193 115 -335 -1 -44 -2 -80 -3 -80
-1 0 -4 -29 -6 -65 -3 -35 -8 -73 -11 -82 -3 -10 -7 -30 -10 -45 -9 -49 -45
-146 -71 -193 -58 -101 -168 -174 -257 -171 -62 2 -72 3 -126 17 -176 47 -299
146 -325 264 -2 8 -4 15 -5 15 -5 0 -10 51 -10 115 0 69 2 93 16 160 3 14 6
31 6 38 1 6 6 12 11 12 6 0 8 3 4 6 -8 9 26 74 59 114 39 45 95 78 156 91 72
15 123 46 186 114 79 83 119 108 160 96z m-676 -46 c10 -4 20 -16 23 -26 7
-21 -11 -86 -30 -109 -7 -8 -20 -34 -31 -57 -10 -24 -22 -43 -27 -43 -4 0 -6
-4 -3 -8 3 -5 -1 -20 -8 -34 -43 -82 -77 -229 -77 -334 0 -143 53 -266 163
-374 66 -64 206 -156 298 -195 109 -45 127 -55 153 -81 31 -31 35 -69 11 -119
-20 -44 -272 -301 -346 -354 -58 -42 -178 -111 -200 -115 -7 -2 -26 -9 -43
-15 -16 -7 -39 -15 -50 -17 -11 -2 -33 -7 -50 -11 -61 -14 -211 -18 -270 -7
-163 30 -268 91 -344 202 -22 32 -69 139 -78 177 -33 151 -35 301 -4 430 6 22
10 40 9 40 -2 0 25 96 34 120 42 117 114 265 179 372 48 78 110 166 121 171 5
2 8 8 8 13 0 23 191 215 272 272 35 25 86 56 113 68 28 13 53 29 57 34 4 6 8
7 8 3 0 -3 12 -3 28 2 28 8 55 7 84 -5z"/>
<path d="M5308 20565 c-2 -3 -24 -7 -49 -10 -64 -8 -103 -16 -114 -25 -5 -5
-13 -9 -17 -9 -5 -1 -10 -2 -13 -2 -3 -1 -8 -2 -12 -3 -29 -6 -225 -118 -285
-164 -73 -56 -198 -175 -231 -222 -87 -123 -163 -260 -187 -335 -7 -22 -17
-46 -23 -52 -5 -7 -7 -13 -3 -13 3 0 1 -12 -5 -27 -46 -118 -69 -280 -56 -383
5 -36 43 -118 73 -158 22 -28 117 -105 134 -108 3 0 20 -8 39 -16 29 -13 31
-16 15 -21 -25 -7 -223 -58 -243 -62 -37 -9 -223 -65 -232 -70 -5 -4 -17 -8
-26 -10 -22 -4 -229 -76 -300 -104 -29 -12 -53 -18 -53 -13 0 4 -4 2 -8 -3 -4
-6 -34 -21 -67 -34 -92 -37 -167 -70 -200 -88 -16 -10 -31 -16 -32 -15 -2 0
-20 -6 -40 -15 -21 -9 -40 -17 -43 -18 -10 -1 -287 -140 -332 -167 -27 -15
-48 -24 -48 -20 0 4 -4 2 -8 -3 -4 -6 -25 -19 -47 -30 -22 -11 -57 -30 -77
-43 -21 -12 -38 -19 -38 -16 0 4 -8 0 -17 -8 -10 -8 -79 -45 -154 -81 -222
-109 -319 -135 -355 -96 -16 18 -19 41 -21 217 -1 108 -5 217 -8 242 -3 25 -7
59 -9 75 -2 17 -14 62 -26 100 -97 311 -309 499 -620 552 -56 10 -240 3 -310
-12 -113 -23 -116 -24 -188 -51 -37 -14 -71 -27 -77 -28 -37 -8 -193 -101
-285 -169 -99 -73 -288 -271 -358 -373 -65 -97 -111 -171 -112 -181 0 -7 -5
-13 -12 -13 -6 0 -9 -3 -5 -6 3 -3 -4 -23 -17 -43 -24 -39 -108 -234 -107
-248 0 -2 -6 -18 -15 -38 -8 -19 -11 -35 -8 -35 4 0 1 -7 -6 -15 -7 -8 -10
-15 -7 -15 3 0 0 -15 -8 -34 -8 -18 -11 -36 -8 -40 4 -3 2 -6 -3 -6 -5 0 -9
-12 -10 -27 0 -16 -3 -41 -7 -58 -23 -105 -30 -357 -13 -465 4 -30 9 -62 11
-70 5 -32 27 -107 41 -137 8 -17 14 -36 14 -41 0 -6 6 -17 13 -24 6 -7 19 -26
27 -43 15 -29 160 -185 173 -185 3 0 23 -12 44 -26 46 -31 138 -74 158 -74 8
0 15 -4 15 -8 0 -4 8 -8 18 -9 25 -1 96 -14 104 -19 8 -5 161 -5 203 0 17 2
59 11 95 21 36 9 72 18 80 20 43 9 269 110 280 125 3 4 16 13 30 20 30 16 121
83 170 125 90 78 270 267 270 285 0 5 3 10 8 10 4 0 32 32 62 72 30 40 66 84
79 98 13 14 35 39 50 55 42 48 130 119 206 167 74 47 101 60 310 156 134 61
272 127 550 262 263 127 314 151 317 148 2 -2 18 7 36 20 17 13 32 21 32 18 0
-2 37 13 83 34 148 68 197 90 207 90 6 0 10 5 10 11 0 5 3 8 8 5 4 -2 25 4 47
14 22 11 43 19 46 20 4 0 24 8 45 17 22 9 44 18 49 19 6 1 37 14 70 27 33 14
69 27 80 29 11 1 22 6 25 9 8 9 366 122 460 145 8 2 44 10 80 19 83 20 100 33
102 79 1 20 4 36 7 36 3 0 44 -14 91 -31 131 -48 172 -60 210 -65 229 -31 294
-94 248 -243 -10 -33 -23 -61 -28 -61 -6 0 -10 -5 -10 -12 0 -10 -57 -106 -70
-118 -29 -26 -255 -417 -250 -432 2 -4 -10 -36 -28 -78 -8 -19 -16 -42 -18
-50 -1 -8 -10 -42 -18 -75 -25 -94 -31 -159 -30 -320 0 -109 5 -169 19 -220 9
-38 20 -74 24 -80 3 -5 6 -12 6 -15 2 -19 43 -78 78 -113 92 -93 231 -129 492
-127 119 0 135 2 135 9 0 3 13 7 29 8 16 1 62 14 102 29 41 15 89 32 107 38
17 6 32 14 32 18 0 5 8 8 19 8 10 0 24 7 31 15 7 8 18 15 25 15 31 0 441 242
530 312 6 5 57 42 114 84 57 41 108 79 115 85 6 5 31 25 56 45 25 19 52 41 60
47 8 7 18 14 22 15 5 1 20 15 35 30 16 15 41 38 56 49 52 40 289 250 383 339
22 22 103 98 179 169 172 162 274 258 346 327 31 29 96 89 144 133 206 188
226 220 180 281 -32 42 -75 52 -114 27 -24 -15 -103 -84 -231 -203 -15 -14
-71 -65 -125 -115 -53 -49 -114 -106 -135 -125 -76 -71 -233 -216 -255 -235
-38 -34 -206 -189 -238 -218 -16 -15 -52 -46 -80 -70 -27 -23 -61 -53 -76 -67
-23 -22 -146 -129 -191 -167 -8 -6 -25 -21 -37 -33 -13 -11 -25 -20 -28 -20
-3 0 -13 -8 -23 -17 -10 -10 -31 -27 -46 -38 -16 -11 -35 -26 -42 -33 -8 -8
-38 -31 -67 -52 -28 -22 -56 -43 -62 -47 -10 -8 -135 -94 -180 -123 -201 -130
-549 -296 -689 -326 -11 -3 -32 -8 -46 -12 -14 -3 -65 -6 -115 -6 -76 0 -99 4
-148 26 -91 43 -159 121 -202 233 -12 32 -14 175 -4 233 29 155 119 350 302
652 38 63 75 122 81 130 25 30 107 169 127 215 74 167 29 285 -138 361 -172
78 -227 147 -188 235 9 20 48 65 86 100 144 133 186 175 218 216 31 40 122
213 147 278 7 17 30 75 52 130 22 55 44 118 48 140 9 48 11 116 5 130 -3 6 -7
19 -8 30 -4 20 -43 105 -65 140 -35 54 -133 138 -191 164 -34 16 -69 29 -77
29 -38 3 -79 10 -87 15 -6 4 -12 4 -15 2z m60 -215 c2 -3 17 -7 30 -9 5 0 20
-10 33 -22 13 -11 29 -24 35 -27 6 -4 24 -29 40 -57 25 -44 29 -59 28 -130 0
-94 -12 -139 -67 -256 -15 -31 -27 -61 -27 -67 0 -7 -4 -12 -10 -12 -5 0 -10
-5 -10 -11 0 -13 -101 -169 -125 -192 -8 -9 -15 -18 -15 -22 0 -12 -183 -205
-195 -205 -3 0 -16 -10 -28 -22 -36 -37 -130 -97 -154 -99 -5 0 -12 -4 -18 -9
-12 -9 -70 -24 -105 -25 -14 -1 -37 7 -52 17 -16 11 -28 16 -28 13 0 -3 -13 3
-29 14 -16 12 -34 21 -40 21 -5 0 -15 8 -20 18 -6 9 -11 13 -11 9 0 -16 -50
39 -68 76 -27 55 -27 132 -2 208 26 77 81 193 115 243 14 20 25 39 25 42 0 3
13 22 28 42 16 20 48 64 73 97 50 68 214 235 230 235 5 0 7 5 4 10 -3 6 -2 10
4 10 5 0 30 14 55 30 82 55 183 88 260 84 23 -1 42 -3 44 -4z m-3462 -1393
c23 -18 56 -52 73 -77 34 -50 75 -165 67 -186 -3 -8 -2 -14 2 -14 15 0 -3
-267 -25 -350 -3 -14 -7 -30 -9 -37 -6 -30 -28 -89 -37 -100 -5 -7 -6 -13 -2
-13 5 0 2 -8 -6 -17 -8 -10 -21 -30 -28 -44 -17 -35 -79 -101 -115 -124 -37
-23 -112 -42 -151 -39 -16 1 -60 9 -97 18 -160 37 -285 129 -327 241 -29 75
-31 209 -7 320 5 23 20 63 37 100 18 40 69 106 69 89 0 -4 7 1 14 12 16 22 60
41 159 69 50 14 69 27 143 100 117 115 148 122 240 52z m-747 -11 c27 -24 22
-53 -25 -142 -99 -189 -138 -318 -137 -464 0 -233 146 -418 436 -553 44 -21
81 -37 83 -37 21 0 93 -46 106 -68 29 -52 15 -99 -56 -181 -49 -57 -269 -272
-273 -267 -3 2 -13 -3 -23 -12 -34 -31 -45 -38 -110 -74 -83 -47 -179 -78
-280 -94 -52 -7 -187 -4 -235 6 -90 19 -97 21 -131 35 -156 65 -251 206 -290
430 -9 51 -13 237 -6 250 3 5 7 22 9 39 4 36 10 66 28 134 24 94 149 378 181
409 7 8 14 21 14 29 0 8 5 14 10 14 6 0 10 5 10 12 0 11 100 154 150 213 91
109 296 285 332 285 5 0 21 8 35 18 62 40 138 48 172 18z"/>
</g>
</svg>
